<?xml version="1.0" encoding="UTF-8" standalone="no"?>
<svg width="30px" height="30px" viewBox="0 0 30 30" version="1.1" xmlns="http://www.w3.org/2000/svg" xmlns:xlink="http://www.w3.org/1999/xlink" xmlns:sketch="http://www.bohemiancoding.com/sketch/ns">
    <!-- Generator: Sketch 3.3.1 (12002) - http://www.bohemiancoding.com/sketch -->
    <title>30</title>
    <desc>Created with Sketch.</desc>
    <defs></defs>
    <g id="Page-1" stroke="none" stroke-width="1" fill="none" fill-rule="evenodd" sketch:type="MSPage">
        <g id="30" sketch:type="MSArtboardGroup">
            <g id="Imported-Layers-Copy" sketch:type="MSLayerGroup" transform="translate(1.000000, 1.000000)">
                <path d="M12.9287322,5.56151913 C8.9152459,5.5132459 5.58974863,8.68772678 5.54866667,12.7116175 C5.50689617,16.8019891 8.73056831,20.0670492 12.7715956,20.0798251 L12.7648634,19.3576393 C9.19348634,19.3587869 6.2469071,16.4242951 6.24468852,12.8626339 C6.24246995,9.22967213 9.17221858,6.27131148 12.7554536,6.28814208 C16.4226885,6.30543169 19.3152568,9.18721311 19.3177049,12.8258361 C19.3177049,12.8314208 19.3172459,12.836929 19.3172459,12.8425137 L20.0262732,12.8380765 C20.0262732,12.8334863 20.0264262,12.8289727 20.0264262,12.8243825 C20.0375191,8.88663388 16.8055082,5.60818579 12.9287322,5.56151913" id="Fill-1" fill="#140480" sketch:type="MSShapeGroup"></path>
                <path d="M0.0536284153,12.8082404 C1.85465574,12.1496284 3.62775956,11.5013443 5.41838251,10.8464809 C4.18921311,9.37923497 2.97320219,7.92767213 1.73347541,6.44772678 C1.94018579,6.47656831 2.09762842,6.49844809 2.25507104,6.52040437 C2.09525683,6.46838251 1.93536612,6.41628415 1.77555191,6.36410929 C1.76101639,6.37979235 1.74273224,6.39325683 1.73240437,6.41138798 C0.588612022,8.42624044 0.00359562842,10.5872131 0.0347322404,12.909071 C0.0810163934,12.9007322 0.127300546,12.8922404 0.173584699,12.8838251 C0.141071038,12.8633224 0.108557377,12.8428197 0.0536284153,12.8082404" id="Fill-2" fill="#13027F" sketch:type="MSShapeGroup"></path>
                <path d="M6.61733333,3.02774863 C6.5520765,2.63735519 6.48689617,2.24696175 6.42163934,1.8564918 C6.43586885,1.84172678 6.45002186,1.82688525 6.46425137,1.81212022 C7.90854645,3.02178142 9.35284153,4.23136612 10.8110601,5.45265574 C11.0932022,4.68104918 11.369224,3.93162842 11.6412678,3.18060109 C11.997388,2.19754098 12.3502951,1.21333333 12.7045792,0.229584699 C12.7087869,0.217650273 12.7129945,0.205639344 12.7171257,0.193551913 L12.7149071,0.196229508 C12.7116175,0.151934426 12.7083279,0.107715847 12.7050383,0.0634972678 C12.6760437,0.0638032787 12.6469727,0.0641857923 12.6180546,0.0646448087 C12.5739891,0.0904262295 12.529388,0.139311475 12.4863169,0.138010929 C12.2965902,0.132273224 12.1073989,0.112153005 11.9179781,0.0972349727 C11.8092678,0.100295082 11.7000219,0.0972349727 11.5919235,0.107562842 C10.3772131,0.223770492 9.19356284,0.482961749 8.06790164,0.956131148 C7.4759235,1.20499454 6.91148634,1.51934426 6.33457923,1.80416393 C6.40312568,2.1755847 6.46998907,2.54731148 6.54259016,2.91796721 C6.55046995,2.95790164 6.59162842,2.99133333 6.61733333,3.02774863" id="Fill-3" fill="#13027F" sketch:type="MSShapeGroup"></path>
                <path d="M1.7864153,6.33978142 C1.77685246,6.34528962 1.77325683,6.35339891 1.77555191,6.36410929 C1.93536612,6.41628415 2.09525683,6.46838251 2.25507104,6.52040437 C2.30410929,6.53340984 2.35253552,6.55024044 2.4023388,6.55888525 C3.84808743,6.81126776 5.29383607,7.06311475 6.7397377,7.31419672 C6.94897268,7.35061202 7.15897268,7.38289617 7.39544262,7.42137705 C7.13143169,5.93064481 6.87438251,4.47923497 6.61733333,3.02774863 C6.59162842,2.99133333 6.55046995,2.95790164 6.54259016,2.91796721 C6.46998907,2.54731148 6.40312568,2.1755847 6.33457923,1.80416393 C6.32325683,1.80186885 6.31491803,1.80577049 6.30956284,1.81594536 C6.30948634,1.82956284 6.30940984,1.84310383 6.30933333,1.85672131 C6.29846995,1.85060109 6.28775956,1.84455738 6.27689617,1.83851366 C5.22812022,2.42842623 4.31046995,3.18457923 3.48775956,4.0572459 C2.84253552,4.74171585 2.26616393,5.47981421 1.80974863,6.30627322 C1.81579235,6.31721311 1.82175956,6.32815301 1.82780328,6.3390929 C1.81395628,6.3393224 1.80018579,6.33962842 1.7864153,6.33978142" id="Fill-4" fill="#13027F" sketch:type="MSShapeGroup"></path>
                <path d="M3.06446995,13.9361967 C2.198,13.6210055 1.33038251,13.3092568 0.463224044,12.9960546 C0.409825137,12.9744044 0.35642623,12.9527541 0.303027322,12.9309508 L0.30295082,12.9335519 C0.26010929,12.9172568 0.217344262,12.9008852 0.174655738,12.8844372 L0.173584699,12.8838251 C0.127300546,12.8922404 0.0810163934,12.9007322 0.0347322404,12.909071 C0.035726776,12.9532896 0.0367213115,12.9974317 0.037715847,13.0417268 C0.166852459,13.2241858 0.129213115,13.4159016 0.0687759563,13.6088415 C0.185901639,14.3763934 0.261103825,15.1532787 0.42979235,15.9093552 C0.685923497,17.0574317 1.14937705,18.1323716 1.75298361,19.167071 C2.97725683,17.7083934 4.1917377,16.2613443 5.41861202,14.7994536 C4.61900546,14.5060656 3.84242623,14.2191803 3.06446995,13.9361967" id="Fill-5" fill="#13017F" sketch:type="MSShapeGroup"></path>
                <path id="Fill-6" fill="#13017F" sketch:type="MSShapeGroup" d="M0.30305082,12.9309508 L0.30295082,12.9343508 L0.30305082,12.9309508"></path>
                <path d="M19.138765,1.8871694 C19.1363169,1.91968306 19.1331038,1.95212022 19.1275191,1.98409836 C18.9028306,3.2815082 18.676612,4.57868852 18.4514645,5.87602186 C18.3636393,6.38147541 18.2777268,6.88731148 18.1871475,7.41525683 C18.2722186,7.40615301 18.3287541,7.4032459 18.3841421,7.39353005 C19.5807213,7.18398907 20.776918,6.97131148 21.9739563,6.76444809 C22.5725137,6.66101639 23.1728306,6.56791257 23.772306,6.47029508 C23.7365027,6.39692896 23.7054426,6.32065574 23.6634426,6.25088525 C22.9586995,5.07718033 22.1071475,4.02052459 21.0476612,3.15344262 C20.4467322,2.66153005 19.782153,2.24726776 19.1453443,1.79903825 C19.1428962,1.8283388 19.1410601,1.85786885 19.138765,1.8871694" id="Fill-7" fill="#13027F" sketch:type="MSShapeGroup"></path>
                <path id="Fill-8" fill="#13027F" sketch:type="MSShapeGroup" d="M19.1451148,1.7992377 C19.1452148,1.7993377 19.1453148,1.7993377 19.1454148,1.7994377 C19.1455148,1.7989377 19.1455148,1.7985377 19.1455148,1.7980377 C19.1454148,1.7979377 19.1453148,1.7978377 19.1452148,1.7977377 C19.1451148,1.7982377 19.1451148,1.7987377 19.1451148,1.7992377"></path>
                <path id="Fill-9" fill="#13027F" sketch:type="MSShapeGroup" d="M23.772306,6.47029508 C23.7365027,6.39692896 23.7054426,6.32065574 23.6634426,6.25088525 C23.7054426,6.32065574 23.7365027,6.39692896 23.772306,6.47029508"></path>
                <path d="M21.0476612,3.15344262 C20.4465792,2.66137705 19.781847,2.24703825 19.1454208,1.79796721 C19.1454208,1.79834973 19.1454208,1.79865574 19.1453443,1.79903825 C19.782153,2.24726776 20.4467322,2.66153005 21.0476612,3.15344262" id="Fill-10" fill="#13027F" sketch:type="MSShapeGroup"></path>
                <path id="Fill-11" fill="#13027F" sketch:type="MSShapeGroup" d="M23.778406,6.47005355 L23.778706,6.46975355 C23.778606,6.46985355 23.778606,6.46995355 23.778506,6.46995355 L23.779006,6.46945355 C23.776706,6.46985355 23.774506,6.47025355 23.772306,6.47055355 C23.772406,6.47075355 23.772406,6.47085355 23.772506,6.47105355 C23.774506,6.47075355 23.776506,6.47045355 23.778406,6.47005355"></path>
                <path id="Fill-12" fill="#13027F" sketch:type="MSShapeGroup" d="M19.1464836,1.80018142 C19.1467836,1.79678142 19.1469836,1.79328142 19.1472836,1.78978142 C19.1468836,1.79018142 19.1419836,1.79528142 19.1409836,1.79638142 C19.1427836,1.79768142 19.1445836,1.79888142 19.1464836,1.80018142"></path>
                <path id="Fill-13" fill="#13027F" sketch:type="MSShapeGroup" d="M19.147065,1.79888525 C19.143965,1.83207415 19.141765,1.86552303 19.138765,1.89888525 C19.141765,1.86569634 19.144165,1.83224746 19.147365,1.79905856 C19.147265,1.7989719 19.147165,1.7989719 19.147065,1.79888525"></path>
                <path id="Fill-14" fill="#13027F" sketch:type="MSShapeGroup" d="M23.772459,6.47091257 C23.773159,6.47221257 23.773659,6.47361257 23.774359,6.47491257 C23.774359,6.47491257 23.778159,6.47031257 23.778359,6.46991257 C23.776459,6.47031257 23.774459,6.47061257 23.772459,6.47091257"></path>
                <path d="M12.923377,0.230196721 L12.923377,0.230196721 C12.9153443,0.26431694 12.9073115,0.298360656 12.8992022,0.332557377 C12.8991257,0.332557377 12.8995847,0.337071038 12.8995847,0.337071038 C13.005082,0.39284153 13.0792131,0.460240437 12.9919235,0.587081967 C13.4148306,1.75443716 13.8373552,2.92186885 14.2607978,4.08899454 C14.4235956,4.53768306 14.588306,4.98560656 14.7592131,5.45288525 C15.1965027,5.08636066 15.6131366,4.73613115 16.0309945,4.38743169 C17.0668415,3.52295082 18.103224,2.65915847 19.139377,1.79506011 C18.6022514,1.52638251 18.0767541,1.23046995 17.5252459,0.995606557 C16.7100328,0.648284153 15.862459,0.393071038 14.9805355,0.268830601 C14.950776,0.261256831 14.9210164,0.253759563 14.8911803,0.246262295 C14.8471913,0.25536612 14.8032787,0.264546448 14.7592896,0.273726776 C14.701224,0.248404372 14.6431585,0.223005464 14.5850929,0.197606557 C14.5559454,0.194699454 14.5267978,0.191715847 14.4975738,0.188808743 C14.3959016,0.17526776 14.294306,0.161726776 14.1926339,0.148262295 C14.1632568,0.146273224 14.1337268,0.144360656 14.1043497,0.142448087 C14.0364153,0.156601093 13.9679454,0.184677596 13.9004699,0.182459016 C13.6481639,0.174349727 13.3959344,0.160655738 13.1443934,0.139005464 C13.0813552,0.133650273 13.0214536,0.0912677596 12.9601749,0.0658688525 C12.9438033,0.0654863388 12.9275847,0.0651803279 12.9113661,0.0648743169 C12.9153443,0.119956284 12.9193224,0.175114754 12.923377,0.230196721" id="Fill-15" fill="#13017F" sketch:type="MSShapeGroup"></path>
                <path d="M19.1397596,1.7946776 C18.6023279,1.52638251 18.0767541,1.23046995 17.5252459,0.995606557 C18.0767541,1.23046995 18.6022514,1.52638251 19.139377,1.79506011 C19.1395301,1.7949071 19.1396066,1.7948306 19.1397596,1.7946776" id="Fill-16" fill="#13017F" sketch:type="MSShapeGroup"></path>
                <path id="Fill-17" fill="#13017F" sketch:type="MSShapeGroup" d="M19.139477,1.7951776 C19.139577,1.7950776 19.139777,1.7948776 19.139977,1.7947776 L19.139877,1.7946776 C19.139677,1.7948776 19.139577,1.7949776 19.139377,1.7951776 L19.139477,1.7951776"></path>
                <path d="M16.0309945,4.38743169 C17.0669945,3.52279781 18.1034536,2.65892896 19.1394536,1.79506011 L19.139377,1.79506011 C18.103224,2.65915847 17.0668415,3.52295082 16.0309945,4.38743169" id="Fill-18" fill="#13017F" sketch:type="MSShapeGroup"></path>
                <path id="Fill-19" fill="#13017F" sketch:type="MSShapeGroup" d="M19.1413361,1.79638142 L19.1412361,1.79628142 C19.1412361,1.79628142 19.1472361,1.79018142 19.1476361,1.78978142 C19.1450361,1.79198142 19.1424361,1.79408142 19.1398361,1.79628142 C19.1402361,1.79648142 19.1405361,1.79658142 19.1408361,1.79678142 C19.1408361,1.79678142 19.1412361,1.79638142 19.1413361,1.79638142"></path>
                <path id="Fill-20" fill="#13017F" sketch:type="MSShapeGroup" d="M19.1410071,1.79638142 C19.1420071,1.79528142 19.1469071,1.79018142 19.1473071,1.78978142 C19.1469071,1.79018142 19.1409071,1.79628142 19.1409071,1.79628142 L19.1410071,1.79638142"></path>
                <path d="M1.76491803,19.1946885 C2.92837158,21.1474973 4.46072131,22.6683716 6.41620765,23.8065027 C6.74356284,21.9325683 7.06540984,20.0899235 7.39238251,18.2182077 C5.50161749,18.5463279 3.64994536,18.8675628 1.76491803,19.1946885" id="Fill-21" fill="#13027F" sketch:type="MSShapeGroup"></path>
                <path d="M23.687082,6.61190164 C22.5621858,7.95842623 21.4361421,9.30410929 20.3103279,10.6499454 C20.2606776,10.7093115 20.2114863,10.7692131 20.146918,10.8472459 C21.9311148,11.4987432 23.6899126,12.1407541 25.4632459,12.7881967 C25.4632459,12.6590601 25.466,12.557388 25.4628634,12.4559454 C25.4188743,11.0556393 25.1843169,9.688 24.6726667,8.38271038 C24.4805683,7.89286339 24.2411913,7.42153005 24.0060219,6.94851366 C23.9977596,6.93198907 23.9896503,6.91538798 23.9814645,6.89878689 C23.9504809,6.83643716 23.9195738,6.77408743 23.8889727,6.7115847 C23.8737486,6.68060109 23.8589071,6.64946448 23.8438361,6.61840437 C23.8205792,6.57051366 23.7971694,6.52269945 23.7742951,6.47457923 C23.7457596,6.52101639 23.7215082,6.57074317 23.687082,6.61190164" id="Fill-22" fill="#13027F" sketch:type="MSShapeGroup"></path>
                <path id="Fill-23" fill="#13027F" sketch:type="MSShapeGroup"></path>
                <path id="Fill-24" fill="#13027F" sketch:type="MSShapeGroup" d="M23.9814645,6.89878689 C23.9921645,6.92048689 24.0027645,6.94218689 24.0135645,6.96378689 C24.0027645,6.94218689 23.9921645,6.92048689 23.9814645,6.89878689"></path>
                <path id="Fill-25" fill="#13027F" sketch:type="MSShapeGroup" d="M23.7742951,6.47603607 L23.7742951,6.47603607 C23.7755951,6.47403607 23.7766951,6.47193607 23.7778951,6.46983607 L23.7778951,6.46993607 C23.7765951,6.47193607 23.7754951,6.47403607 23.7742951,6.47603607"></path>
                <path id="Fill-26" fill="#13027F" sketch:type="MSShapeGroup" d="M23.7780126,6.46991257 L23.7739126,6.47491257 C23.7741126,6.47531257 23.7742126,6.47561257 23.7744126,6.47601257 C23.7756126,6.47401257 23.7767126,6.47191257 23.7780126,6.46991257"></path>
                <path id="Fill-27" fill="#13027F" sketch:type="MSShapeGroup" d="M23.7739126,6.4737377 C23.7741126,6.4741377 23.7743126,6.4744377 23.7744126,6.4748377 C23.7742126,6.4744377 23.7741126,6.4741377 23.7739126,6.4737377"></path>
                <path id="Fill-28" fill="#13027F" sketch:type="MSShapeGroup" d="M23.8438361,6.61840437 C23.8635361,6.6517377 23.8829361,6.68515314 23.9028361,6.71840437 C23.8829361,6.68515314 23.8635361,6.6517377 23.8438361,6.61840437"></path>
                <path id="Fill-29" fill="#13027F" sketch:type="MSShapeGroup" d="M23.7769727,6.46998306 L23.7770727,6.46998306 L23.7770727,6.46988306 C23.7771727,6.46988306 23.7771727,6.46978306 23.7772727,6.46968306 L23.7769727,6.46998306"></path>
                <path id="Fill-30" fill="#13027F" sketch:type="MSShapeGroup" d="M23.7780126,6.46991257 L23.7779126,6.46991257 C23.7777126,6.47031257 23.7739126,6.47491257 23.7739126,6.47491257 L23.7780126,6.46991257"></path>
                <path d="M6.46180328,23.8315191 C8.42134426,24.9326995 10.4996175,25.4770929 12.7480328,25.4953005 C12.0980656,23.715082 11.4601858,21.9677596 10.8117486,20.1917486 C9.35253552,21.4126557 7.9184153,22.6126776 6.46180328,23.8315191" id="Fill-31" fill="#13027F" sketch:type="MSShapeGroup"></path>
                <path id="Fill-32" fill="#160681" sketch:type="MSShapeGroup" d="M13.9004699,0.182459016 C13.9679454,0.184677596 14.0364153,0.156601093 14.1043497,0.142448087 C13.7229836,0.116896175 13.3416175,0.0913442623 12.9601749,0.0658688525 C13.0214536,0.0912677596 13.0813552,0.133650273 13.1443934,0.139005464 C13.3959344,0.160655738 13.6481639,0.174349727 13.9004699,0.182459016"></path>
                <path id="Fill-33" fill="#160681" sketch:type="MSShapeGroup" d="M12.6180546,0.0646448087 C12.3847213,0.0787448087 12.151388,0.0929448087 11.9179781,0.107244809 C12.1073989,0.126744809 12.2965902,0.153044809 12.4863169,0.160544809 C12.529388,0.162244809 12.5739891,0.0983448087 12.6180546,0.0646448087"></path>
                <path id="Fill-34" fill="#13027F" sketch:type="MSShapeGroup" d="M0.037715847,13.0417268 C0.0496360758,13.2306885 0.0616446026,13.4198033 0.0735648314,13.6088415 C0.143320245,13.4159016 0.186762856,13.2241858 0.037715847,13.0417268"></path>
                <path id="Fill-35" fill="#160681" sketch:type="MSShapeGroup" d="M12.7839891,0.0870601093 C12.8145902,0.140612022 12.8413661,0.187355191 12.8679126,0.234021858 C12.8864262,0.232721311 12.9049399,0.231420765 12.923377,0.230196721 C12.9193224,0.175038251 12.9153443,0.119956284 12.9113661,0.0648743169 C12.8425902,0.0643387978 12.7738142,0.0638797814 12.7050383,0.0634972678 C12.7083279,0.107715847 12.7116175,0.151934426 12.7149071,0.196153005 C12.7356393,0.163486339 12.7562951,0.130819672 12.7839891,0.0870601093"></path>
                <path id="Fill-36" fill="#160681" sketch:type="MSShapeGroup" d="M12.9270661,0.230196721 C12.9217661,0.175114754 12.9165661,0.119956284 12.9113661,0.0648743169 C12.9165661,0.119956284 12.9217661,0.175038251 12.9270661,0.230196721"></path>
                <path id="Fill-37" fill="#13027F" sketch:type="MSShapeGroup" d="M12.8995847,0.337071038 C12.9304153,0.420459016 12.9611694,0.503770492 12.9919235,0.587081967 C13.0792131,0.460240437 13.005082,0.39284153 12.8995847,0.337071038"></path>
                <path id="Fill-38" fill="#13027F" sketch:type="MSShapeGroup" d="M12.9404126,0.230196721 L12.9404126,0.230196721 C12.9163126,0.231420765 12.8921126,0.232721311 12.8679126,0.234021858 C12.8816126,0.26684153 12.8952126,0.299737705 12.9088126,0.332557377 C12.9194126,0.298360656 12.9299126,0.26431694 12.9404126,0.230196721"></path>
                <path id="Fill-39" fill="#13027F" sketch:type="MSShapeGroup"></path>
                <path id="Fill-40" fill="#13027F" sketch:type="MSShapeGroup" d="M1.8405153,6.34917322 C1.8326153,6.33487322 1.8248153,6.32057322 1.8169153,6.30627322 C1.8067153,6.32087322 1.7965153,6.33547322 1.7864153,6.35007322 C1.8044153,6.34987322 1.8224153,6.34947322 1.8405153,6.34917322"></path>
                <path id="Fill-41" fill="#13027F" sketch:type="MSShapeGroup" d="M6.31959617,1.81605421 C6.29659617,1.81325421 6.28229617,1.82315421 6.27689617,1.84555421 C6.29109617,1.85345421 6.30509617,1.86135421 6.31929617,1.86935421 C6.31939617,1.85155421 6.31949617,1.83385421 6.31959617,1.81605421"></path>
                <path id="Fill-42" fill="#160681" sketch:type="MSShapeGroup" d="M12.7209792,0.193551913 C12.7155792,0.209351913 12.7100792,0.225051913 12.7045792,0.240651913 C12.7219792,0.229151913 12.7274792,0.213451913 12.7209792,0.193551913"></path>
                <path d="M27.2977814,25.3853661 L19.0764153,17.1639235 C18.7381202,16.8257049 18.2081858,16.7976284 17.836765,17.0778579 C17.8168743,16.9779454 17.7721967,16.8871366 17.7001311,16.8153005 C17.4574645,16.5726339 17.0043388,16.632459 16.687847,16.9488743 L16.5828852,17.0538361 C16.2664699,17.3703279 16.2066448,17.8234536 16.4493115,18.0660437 C16.521224,18.1381093 16.6119563,18.1827869 16.7119454,18.2027541 C16.4316393,18.5740984 16.4596393,19.1040328 16.7980109,19.4424044 L25.019377,27.663694 C25.3894973,28.0337377 25.9895082,28.0337377 26.3597049,27.663694 L27.2977814,26.7256175 C27.6678251,26.3554973 27.6678251,25.7554098 27.2977814,25.3853661" id="Fill-43" fill="#000000" sketch:type="MSShapeGroup"></path>
                <path d="M18.1260505,12.9338086 C18.1179565,15.8361962 15.7732845,18.1811497 12.8886334,18.1722111 C9.97083193,18.1630613 7.64326305,15.8057204 7.67338701,12.8523754 C7.70308868,9.94717246 10.1040671,7.65521742 13.0017391,7.69005705 C15.8005228,7.72370017 18.1341446,10.0908244 18.1260505,12.9338086 L18.1260505,12.9338086 Z M12.8873665,17.6509539 C15.5094887,17.647857 17.6159843,15.5460771 17.6142951,12.9348644 C17.6126059,10.307745 15.5241987,8.22715044 12.8766683,8.21469263 C10.289597,8.20251635 8.17430348,10.3385025 8.17592229,12.9614692 C8.17754111,15.534112 10.3071223,17.65391 12.8873665,17.6509539 L12.8873665,17.6509539 Z" id="Fill-44" stroke="#000000" fill="#000000" sketch:type="MSShapeGroup"></path>
                <path d="M17.1968197,18.9560765 C19.8065574,21.5632896 22.4162951,24.1705027 25.0259563,26.7777158 C25.1186776,26.8703607 25.2113224,26.962929 25.3040437,27.0554973 C25.5135847,27.2649617 25.8381858,26.9402842 25.6285683,26.7309727 C23.0188306,24.1237596 20.4090929,21.5165464 17.7994317,18.9092568 C17.7067104,18.8166885 17.6140656,18.7241202 17.5213443,18.6315519 C17.3118033,18.4221639 16.9872022,18.7466885 17.1968197,18.9560765" id="Fill-46" fill="#FFFFFF" sketch:type="MSShapeGroup"></path>
            </g>
        </g>
    </g>
</svg>