<?xml version="1.0" encoding="UTF-8" standalone="no"?>
<svg width="300px" height="300px" viewBox="0 0 300 300" version="1.1" xmlns="http://www.w3.org/2000/svg" xmlns:xlink="http://www.w3.org/1999/xlink" xmlns:sketch="http://www.bohemiancoding.com/sketch/ns">
    <!-- Generator: Sketch 3.3.1 (12002) - http://www.bohemiancoding.com/sketch -->
    <title>300</title>
    <desc>Created with Sketch.</desc>
    <defs></defs>
    <g id="Page-1" stroke="none" stroke-width="1" fill="none" fill-rule="evenodd" sketch:type="MSPage">
        <g id="300" sketch:type="MSArtboardGroup">
            <g id="Imported-Layers-Copy" sketch:type="MSLayerGroup" transform="translate(9.446721, 7.500000)">
                <path d="M131.596025,56.6083197 C90.7444672,56.1169672 56.8956557,88.4286475 56.4775,129.386107 C56.0523361,171.020246 88.8647131,204.253893 129.996598,204.383934 L129.928074,197.033115 C93.5765574,197.044795 63.5845902,167.175861 63.5620082,130.923238 C63.5394262,93.944877 93.360082,63.8329918 129.832295,64.0043033 C167.159508,64.1802869 196.601721,93.5127049 196.626639,130.548689 C196.626639,130.605533 196.621967,130.661598 196.621967,130.718443 L203.838852,130.673279 C203.838852,130.626557 203.84041,130.580615 203.84041,130.533893 C203.95332,90.4532377 171.056066,57.0833197 131.596025,56.6083197" id="Fill-1" fill="#140480" sketch:type="MSShapeGroup"></path>
                <path d="M0.545860656,130.36959 C18.8777459,123.665861 36.9254098,117.067254 55.1513934,110.40168 C42.6402049,95.4672131 30.2629508,80.692377 17.6443033,65.6286475 C19.7483197,65.9222131 21.3508607,66.144918 22.9534016,66.3684016 C21.3267213,65.8388934 19.6992623,65.3086066 18.072582,64.777541 C17.9246311,64.9371721 17.7385246,65.0742213 17.6334016,65.2587705 C5.99122951,85.7670902 0.0365983607,107.762705 0.35352459,131.395902 C0.824631148,131.311025 1.2957377,131.22459 1.76684426,131.138934 C1.43590164,130.930246 1.10495902,130.721557 0.545860656,130.36959" id="Fill-2" fill="#13027F" sketch:type="MSShapeGroup"></path>
                <path d="M67.355,30.8181557 C66.6907787,26.8445082 66.0273361,22.8708607 65.3631148,18.8964344 C65.5079508,18.7461475 65.6520082,18.595082 65.7968443,18.4447951 C80.4977049,30.757418 95.1985656,43.0692623 110.041148,55.5002459 C112.912951,47.6463934 115.722459,40.0183607 118.491475,32.3739754 C122.11627,22.3678279 125.708361,12.35 129.314467,2.33684426 C129.357295,2.21536885 129.400123,2.09311475 129.442172,1.97008197 L129.41959,1.99733607 C129.386107,1.54647541 129.352623,1.09639344 129.319139,0.646311475 C129.024016,0.64942623 128.728115,0.653319672 128.43377,0.657991803 C127.985246,0.920409836 127.53127,1.4179918 127.092869,1.4047541 C125.161721,1.34635246 123.236025,1.14155738 121.307992,0.989713115 C120.201475,1.02086066 119.089508,0.989713115 117.989221,1.09483607 C105.625205,2.27766393 93.5773361,4.91586066 82.1197131,9.73204918 C76.0942213,12.265123 70.3490574,15.4647541 64.4769672,18.3638115 C65.1746721,22.1443443 65.8552459,25.9279918 66.5942213,29.7007377 C66.6744262,30.1072131 67.0933607,30.4475 67.355,30.8181557" id="Fill-3" fill="#13027F" sketch:type="MSShapeGroup"></path>
                <path d="M18.1831557,64.529918 C18.0858197,64.5859836 18.0492213,64.6685246 18.072582,64.777541 C19.6992623,65.3086066 21.3267213,65.8388934 22.9534016,66.3684016 C23.452541,66.5007787 23.9454508,66.6720902 24.452377,66.760082 C39.1680328,69.3289754 53.8836885,71.892418 68.6009016,74.4480738 C70.7306148,74.8187295 72.8681148,75.1473361 75.275041,75.5390164 C72.5877869,60.3654918 69.9713934,45.5922131 67.355,30.8181557 C67.0933607,30.4475 66.6744262,30.1072131 66.5942213,29.7007377 C65.8552459,25.9279918 65.1746721,22.1443443 64.4769672,18.3638115 C64.3617213,18.3404508 64.2768443,18.3801639 64.2223361,18.4837295 C64.2215574,18.6223361 64.2207787,18.7601639 64.22,18.8987705 C64.1094262,18.8364754 64.0004098,18.774959 63.8898361,18.7134426 C53.2147951,24.7179098 43.8744262,32.4144672 35.5004098,41.2969672 C28.9329508,48.2638934 23.0663115,55.7766803 18.4206557,64.1888525 C18.4821721,64.3002049 18.5429098,64.4115574 18.6044262,64.5229098 C18.4634836,64.5252459 18.3233197,64.5283607 18.1831557,64.529918" id="Fill-4" fill="#13027F" sketch:type="MSShapeGroup"></path>
                <path d="M31.1919262,141.850574 C22.3725,138.642377 13.5413934,135.469221 4.71495902,132.28127 C4.17143443,132.060902 3.62790984,131.840533 3.08438525,131.618607 L3.08360656,131.645082 C2.64754098,131.479221 2.2122541,131.312582 1.7777459,131.145164 L1.76684426,131.138934 C1.2957377,131.22459 0.824631148,131.311025 0.35352459,131.395902 C0.363647541,131.845984 0.373770492,132.295287 0.383893443,132.746148 C1.69831967,134.60332 1.31520492,136.554713 0.700040984,138.518566 C1.89221311,146.331148 2.65766393,154.23873 4.37467213,161.934508 C6.98172131,173.620287 11.6990164,184.561639 17.8428689,195.093402 C30.3042213,180.246148 42.6659016,165.517254 55.1537295,150.637295 C47.014877,147.651025 39.1104098,144.730943 31.1919262,141.850574" id="Fill-5" fill="#13017F" sketch:type="MSShapeGroup"></path>
                <path d="M3.08438525,131.618607 L3.08360656,131.645082 L3.08438525,131.618607" id="Fill-6" fill="#13017F" sketch:type="MSShapeGroup"></path>
                <path d="M194.805287,19.2086885 C194.780369,19.5396311 194.747664,19.8697951 194.69082,20.1952869 C192.403811,33.4010656 190.10123,46.6045082 187.809549,59.8095082 C186.915615,64.9543033 186.041148,70.1029918 185.11918,75.4767213 C185.985082,75.3840574 186.560533,75.3544672 187.124303,75.2555738 C199.30377,73.1227459 211.479344,70.9579918 223.663484,68.852418 C229.755943,67.7996311 235.866311,66.8519672 241.968115,65.8583607 C241.603689,65.1115984 241.287541,64.3352459 240.860041,63.625082 C233.686762,51.6784426 225.01918,40.9231967 214.235123,32.097541 C208.118525,27.0905738 201.354057,22.8739754 194.872254,18.3116393 C194.847336,18.609877 194.828648,18.9104508 194.805287,19.2086885" id="Fill-7" fill="#13027F" sketch:type="MSShapeGroup"></path>
                <path d="M194.869918,18.310082 C194.870697,18.3108607 194.871475,18.3108607 194.872254,18.3116393 C194.873033,18.3077459 194.873033,18.3046311 194.873033,18.3007377 C194.872254,18.299959 194.871475,18.2991803 194.870697,18.2984016 C194.869918,18.3022951 194.869918,18.3061885 194.869918,18.310082" id="Fill-8" fill="#13027F" sketch:type="MSShapeGroup"></path>
                <path d="M241.968115,65.8583607 C241.603689,65.1115984 241.287541,64.3352459 240.860041,63.625082 C241.287541,64.3352459 241.603689,65.1115984 241.968115,65.8583607" id="Fill-9" fill="#13027F" sketch:type="MSShapeGroup"></path>
                <path d="M214.235123,32.097541 C208.116967,27.0890164 201.350943,22.8716393 194.873033,18.3007377 C194.873033,18.3046311 194.873033,18.3077459 194.872254,18.3116393 C201.354057,22.8739754 208.118525,27.0905738 214.235123,32.097541" id="Fill-10" fill="#13027F" sketch:type="MSShapeGroup"></path>
                <path d="M242.015615,65.8544672 L242.017951,65.8521311 C242.017172,65.8529098 242.017172,65.8536885 242.016393,65.8536885 L242.020287,65.8497951 C242.002377,65.8529098 241.985246,65.8560246 241.968115,65.8583607 C241.968893,65.859918 241.968893,65.8606967 241.969672,65.8622541 C241.985246,65.859918 242.00082,65.857582 242.015615,65.8544672" id="Fill-11" fill="#13027F" sketch:type="MSShapeGroup"></path>
                <path d="M194.870697,18.2984016 C194.873033,18.2719262 194.87459,18.2446721 194.876926,18.217418 C194.873811,18.2205328 194.835656,18.2602459 194.827869,18.2688115 C194.841885,18.2789344 194.855902,18.2882787 194.870697,18.2984016" id="Fill-12" fill="#13027F" sketch:type="MSShapeGroup"></path>
                <path d="M194.869918,18.310082 C194.845779,18.6083197 194.828648,18.9088934 194.805287,19.2086885 C194.828648,18.9104508 194.847336,18.609877 194.872254,18.3116393 C194.871475,18.3108607 194.870697,18.3108607 194.869918,18.310082" id="Fill-13" fill="#13027F" sketch:type="MSShapeGroup"></path>
                <path d="M241.969672,65.8622541 C241.975123,65.872377 241.979016,65.8832787 241.984467,65.8934016 C241.984467,65.8934016 242.014057,65.857582 242.015615,65.8544672 C242.00082,65.857582 241.985246,65.859918 241.969672,65.8622541" id="Fill-14" fill="#13027F" sketch:type="MSShapeGroup"></path>
                <path d="M131.541516,2.34307377 L131.541516,2.34307377 C131.459754,2.69036885 131.377992,3.03688525 131.295451,3.38495902 C131.294672,3.38495902 131.299344,3.43090164 131.299344,3.43090164 C132.373156,3.99856557 133.127705,4.68459016 132.239221,5.97565574 C136.543811,17.8576639 140.844508,29.7404508 145.154549,41.620123 C146.811598,46.1871311 148.488115,50.7463525 150.227705,55.502582 C154.678689,51.7718852 158.919426,48.2070492 163.172623,44.6577869 C173.716066,35.8586066 184.264959,27.0664344 194.811516,18.2711475 C189.344344,15.5363934 183.995533,12.5244262 178.381967,10.1338525 C170.084262,6.59860656 161.457172,4.00090164 152.480451,2.73631148 C152.177541,2.65922131 151.874631,2.58290984 151.570943,2.50659836 C151.123197,2.5992623 150.67623,2.69270492 150.228484,2.78614754 C149.637459,2.52840164 149.046434,2.26987705 148.45541,2.01135246 C148.15873,1.9817623 147.862049,1.95139344 147.56459,1.92180328 C146.529713,1.78397541 145.495615,1.64614754 144.460738,1.50909836 C144.161721,1.48885246 143.861148,1.46938525 143.562131,1.44991803 C142.870656,1.59397541 142.17373,1.8797541 141.486926,1.85717213 C138.918811,1.77463115 136.351475,1.6352459 133.791148,1.41487705 C133.149508,1.36036885 132.539795,0.92897541 131.916066,0.67045082 C131.749426,0.666557377 131.584344,0.663442623 131.419262,0.660327869 C131.459754,1.22098361 131.500246,1.78241803 131.541516,2.34307377" id="Fill-15" fill="#13017F" sketch:type="MSShapeGroup"></path>
                <path d="M194.81541,18.2672541 C189.345123,15.5363934 183.995533,12.5244262 178.381967,10.1338525 C183.995533,12.5244262 189.344344,15.5363934 194.811516,18.2711475 C194.813074,18.2695902 194.813852,18.2688115 194.81541,18.2672541" id="Fill-16" fill="#13017F" sketch:type="MSShapeGroup"></path>
                <path d="M194.812295,18.2711475 C194.813074,18.2703689 194.814631,18.2688115 194.816189,18.2680328 L194.81541,18.2672541 C194.813852,18.2688115 194.813074,18.2695902 194.811516,18.2711475 L194.812295,18.2711475" id="Fill-17" fill="#13017F" sketch:type="MSShapeGroup"></path>
                <path d="M163.172623,44.6577869 C173.717623,35.8570492 184.267295,27.0640984 194.812295,18.2711475 L194.811516,18.2711475 C184.264959,27.0664344 173.716066,35.8586066 163.172623,44.6577869" id="Fill-18" fill="#13017F" sketch:type="MSShapeGroup"></path>
                <path d="M194.827869,18.2688115 L194.82709,18.2680328 C194.82709,18.2680328 194.873811,18.2205328 194.876926,18.217418 C194.85668,18.2345492 194.836434,18.2509016 194.816189,18.2680328 C194.819303,18.2695902 194.821639,18.2703689 194.823975,18.2719262 C194.823975,18.2719262 194.82709,18.2688115 194.827869,18.2688115" id="Fill-19" fill="#13017F" sketch:type="MSShapeGroup"></path>
                <path d="M194.827869,18.2688115 C194.835656,18.2602459 194.873811,18.2205328 194.876926,18.217418 C194.873811,18.2205328 194.82709,18.2680328 194.82709,18.2680328 L194.827869,18.2688115" id="Fill-20" fill="#13017F" sketch:type="MSShapeGroup"></path>
                <path d="M17.9643443,195.374508 C29.8066393,215.251311 45.4037705,230.731639 65.3078279,242.316189 C68.6398361,223.242213 71.9157787,204.486721 75.2438934,185.435328 C55.9986066,188.775123 37.1512295,192.044836 17.9643443,195.374508" id="Fill-21" fill="#13027F" sketch:type="MSShapeGroup"></path>
                <path d="M241.100656,67.2997131 C229.65082,81.0054098 218.189303,94.702541 206.730123,108.40123 C206.224754,109.005492 205.724057,109.615205 205.066844,110.409467 C223.227418,117.040779 241.129467,123.575533 259.179467,130.165574 C259.179467,128.851148 259.2075,127.81627 259.175574,126.78373 C258.727828,112.530615 256.340369,98.61 251.1325,85.3240164 C249.177213,80.3380738 246.740697,75.5405738 244.347008,70.7259426 C244.26291,70.5577459 244.180369,70.3887705 244.097049,70.2197951 C243.78168,69.5851639 243.46709,68.9505328 243.155615,68.3143443 C243.000656,67.9989754 242.84959,67.6820492 242.696189,67.3659016 C242.459467,66.8784426 242.221189,66.3917623 241.988361,65.9019672 C241.69791,66.3746311 241.451066,66.8807787 241.100656,67.2997131" id="Fill-22" fill="#13027F" sketch:type="MSShapeGroup"></path>
                <path id="Fill-23" fill="#13027F" sketch:type="MSShapeGroup"></path>
                <path d="M244.097049,70.2197951 C244.180369,70.3887705 244.26291,70.5577459 244.347008,70.7259426 C244.26291,70.5577459 244.180369,70.3887705 244.097049,70.2197951" id="Fill-24" fill="#13027F" sketch:type="MSShapeGroup"></path>
                <path d="M241.988361,65.9019672 L241.988361,65.9019672 C241.998484,65.8863934 242.007049,65.870041 242.016393,65.8536885 L242.016393,65.8544672 C242.00627,65.870041 241.997705,65.8863934 241.988361,65.9019672" id="Fill-25" fill="#13027F" sketch:type="MSShapeGroup"></path>
                <path d="M242.016393,65.8544672 L241.984467,65.8934016 C241.986025,65.8965164 241.986803,65.8988525 241.988361,65.9019672 C241.997705,65.8863934 242.00627,65.870041 242.016393,65.8544672" id="Fill-26" fill="#13027F" sketch:type="MSShapeGroup"></path>
                <path d="M241.984467,65.8934016 C241.986025,65.8965164 241.987582,65.8988525 241.988361,65.9019672 C241.986803,65.8988525 241.986025,65.8965164 241.984467,65.8934016" id="Fill-27" fill="#13027F" sketch:type="MSShapeGroup"></path>
                <path d="M242.696189,67.3659016 C242.84959,67.6820492 243.000656,67.9989754 243.155615,68.3143443 C243.000656,67.9989754 242.84959,67.6820492 242.696189,67.3659016" id="Fill-28" fill="#13027F" sketch:type="MSShapeGroup"></path>
                <path d="M242.015615,65.8544672 L242.016393,65.8544672 L242.016393,65.8536885 C242.017172,65.8536885 242.017172,65.8529098 242.017951,65.8521311 L242.015615,65.8544672" id="Fill-29" fill="#13027F" sketch:type="MSShapeGroup"></path>
                <path d="M242.016393,65.8544672 L242.015615,65.8544672 C242.014057,65.857582 241.984467,65.8934016 241.984467,65.8934016 L242.016393,65.8544672" id="Fill-30" fill="#13027F" sketch:type="MSShapeGroup"></path>
                <path d="M65.7719262,242.57082 C85.7172541,253.779262 106.871107,259.32041 129.756762,259.505738 C123.141025,241.385656 116.64832,223.60041 110.048156,205.523156 C95.1954508,217.950246 80.5981557,230.164754 65.7719262,242.57082" id="Fill-31" fill="#13027F" sketch:type="MSShapeGroup"></path>
                <path d="M141.486926,1.85717213 C142.17373,1.8797541 142.870656,1.59397541 143.562131,1.44991803 C139.680369,1.18983607 135.798607,0.929754098 131.916066,0.67045082 C132.539795,0.92897541 133.149508,1.36036885 133.791148,1.41487705 C136.351475,1.6352459 138.918811,1.77463115 141.486926,1.85717213" id="Fill-32" fill="#160681" sketch:type="MSShapeGroup"></path>
                <path d="M128.43377,0.657991803 C126.05877,0.767786885 123.68377,0.878360656 121.307992,0.989713115 C123.236025,1.14155738 125.161721,1.34635246 127.092869,1.4047541 C127.53127,1.4179918 127.985246,0.920409836 128.43377,0.657991803" id="Fill-33" fill="#160681" sketch:type="MSShapeGroup"></path>
                <path d="M0.383893443,132.746148 C0.489016393,134.669508 0.594918033,136.594426 0.700040984,138.518566 C1.31520492,136.554713 1.69831967,134.60332 0.383893443,132.746148" id="Fill-34" fill="#13027F" sketch:type="MSShapeGroup"></path>
                <path d="M130.122746,0.886147541 C130.434221,1.43122951 130.706762,1.9070082 130.976967,2.3820082 C131.16541,2.36877049 131.353852,2.35553279 131.541516,2.34307377 C131.500246,1.78163934 131.459754,1.22098361 131.419262,0.660327869 C130.719221,0.654877049 130.01918,0.650204918 129.319139,0.646311475 C129.352623,1.09639344 129.386107,1.54647541 129.41959,1.99655738 C129.630615,1.66405738 129.840861,1.33155738 130.122746,0.886147541" id="Fill-35" fill="#160681" sketch:type="MSShapeGroup"></path>
                <path d="M131.541516,2.34307377 C131.500246,1.78241803 131.459754,1.22098361 131.419262,0.660327869 C131.459754,1.22098361 131.500246,1.78163934 131.541516,2.34307377" id="Fill-36" fill="#160681" sketch:type="MSShapeGroup"></path>
                <path d="M131.299344,3.43090164 C131.613156,4.27967213 131.926189,5.12766393 132.239221,5.97565574 C133.127705,4.68459016 132.373156,3.99856557 131.299344,3.43090164" id="Fill-37" fill="#13027F" sketch:type="MSShapeGroup"></path>
                <path d="M131.541516,2.34307377 L131.541516,2.34307377 C131.353852,2.35553279 131.16541,2.36877049 130.976967,2.3820082 C131.083648,2.71606557 131.189549,3.05090164 131.295451,3.38495902 C131.377992,3.03688525 131.459754,2.69036885 131.541516,2.34307377" id="Fill-38" fill="#13027F" sketch:type="MSShapeGroup"></path>
                <path id="Fill-39" fill="#13027F" sketch:type="MSShapeGroup"></path>
                <path d="M18.6044262,64.5229098 C18.5429098,64.4115574 18.4821721,64.3002049 18.4206557,64.1888525 C18.3412295,64.302541 18.2618033,64.4162295 18.1831557,64.529918 C18.3233197,64.5283607 18.4634836,64.5252459 18.6044262,64.5229098" id="Fill-40" fill="#13027F" sketch:type="MSShapeGroup"></path>
                <path d="M64.2223361,18.4837295 C64.0432377,18.4619262 63.9318852,18.5390164 63.8898361,18.7134426 C64.0004098,18.774959 64.1094262,18.8364754 64.22,18.8987705 C64.2207787,18.7601639 64.2215574,18.6223361 64.2223361,18.4837295" id="Fill-41" fill="#13027F" sketch:type="MSShapeGroup"></path>
                <path d="M129.442172,1.97008197 C129.400123,2.09311475 129.357295,2.21536885 129.314467,2.33684426 C129.449959,2.24729508 129.492787,2.12504098 129.442172,1.97008197" id="Fill-42" fill="#160681" sketch:type="MSShapeGroup"></path>
                <path d="M277.852418,258.386762 L194.170656,174.704221 C190.727295,171.261639 185.33332,170.975861 181.552787,173.828197 C181.350328,172.81123 180.895574,171.886926 180.162049,171.155738 C177.692049,168.685738 173.079877,169.294672 169.858443,172.515328 L168.790082,173.583689 C165.569426,176.805123 164.960492,181.417295 167.430492,183.886516 C168.162459,184.620041 169.085984,185.074795 170.10373,185.278033 C167.250615,189.057787 167.535615,194.451762 170.979754,197.895902 L254.661516,281.576885 C258.428811,285.343402 264.536066,285.343402 268.304139,281.576885 L277.852418,272.028607 C281.618934,268.261311 281.618934,262.153279 277.852418,258.386762" id="Fill-43" fill="#000000" sketch:type="MSShapeGroup"></path>
                <path d="M188.333607,130.1975 C188.244057,162.308279 162.303607,188.251844 130.389057,188.152951 C98.1077459,188.051721 72.3565164,161.971107 72.6897951,129.296557 C73.0184016,97.1546311 99.5818033,71.797418 131.64041,72.1828689 C162.604959,72.555082 188.423156,98.7439344 188.333607,130.1975 L188.333607,130.1975 Z M130.375041,182.385984 C159.385082,182.351721 182.690451,159.098525 182.671762,130.20918 C182.653074,101.143852 159.547828,78.125041 130.25668,77.9872131 C101.634426,77.8525 78.2317213,101.484139 78.2496311,130.503525 C78.267541,158.966148 101.82832,182.418689 130.375041,182.385984 L130.375041,182.385984 Z" id="Fill-44" fill="#000000" sketch:type="MSShapeGroup"></path>
                <path d="M188.333607,130.1975 C188.244057,162.308279 162.303607,188.251844 130.389057,188.152951 C98.1077459,188.051721 72.3565164,161.971107 72.6897951,129.296557 C73.0184016,97.1546311 99.5818033,71.797418 131.64041,72.1828689 C162.604959,72.555082 188.423156,98.7439344 188.333607,130.1975 L188.333607,130.1975 Z M130.375041,182.385984 C159.385082,182.351721 182.690451,159.098525 182.671762,130.20918 C182.653074,101.143852 159.547828,78.125041 130.25668,77.9872131 C101.634426,77.8525 78.2317213,101.484139 78.2496311,130.503525 C78.267541,158.966148 101.82832,182.418689 130.375041,182.385984 L130.375041,182.385984 Z" id="Stroke-45" stroke="#000000" stroke-width="6" sketch:type="MSShapeGroup"></path>
                <path d="M175.039057,192.945779 C201.602459,219.483484 228.165861,246.021189 254.728484,272.558893 C255.672254,273.501885 256.615246,274.444098 257.559016,275.386311 C259.691844,277.518361 262.99582,274.213607 260.862213,272.083115 C234.298811,245.54541 207.73541,219.007705 181.172787,192.469221 C180.229016,191.527008 179.286025,190.584795 178.342254,189.642582 C176.209426,187.511311 172.905451,190.814508 175.039057,192.945779" id="Fill-46" fill="#FFFFFF" sketch:type="MSShapeGroup"></path>
                <path d="M173.066639,130.528443 C173.066639,154.208361 153.871967,173.403811 130.192049,173.403811 C106.51291,173.403811 87.317459,154.208361 87.317459,130.528443 C87.317459,106.850082 106.51291,87.6538525 130.192049,87.6538525 C153.871967,87.6538525 173.066639,106.850082 173.066639,130.528443" id="Fill-47" fill="#B3B3B3" sketch:type="MSShapeGroup"></path>
                <path d="M160.51418,160.850574 C176.875984,144.48877 177.239631,118.198689 161.62459,101.383689 L101.047295,161.960984 C117.862295,177.576803 144.152377,177.213156 160.51418,160.850574" id="Fill-48" fill="#CCCCCC" sketch:type="MSShapeGroup"></path>
            </g>
        </g>
    </g>
</svg>