<?xml version="1.0" encoding="UTF-8" standalone="no"?>
<svg width="80px" height="80px" viewBox="0 0 80 80" version="1.1" xmlns="http://www.w3.org/2000/svg" xmlns:xlink="http://www.w3.org/1999/xlink" xmlns:sketch="http://www.bohemiancoding.com/sketch/ns">
    <!-- Generator: Sketch 3.3.1 (12002) - http://www.bohemiancoding.com/sketch -->
    <title>80</title>
    <desc>Created with Sketch.</desc>
    <defs></defs>
    <g id="Page-1" stroke="none" stroke-width="1" fill="none" fill-rule="evenodd" sketch:type="MSPage">
        <g id="80" sketch:type="MSArtboardGroup">
            <g id="Imported-Layers-Copy" sketch:type="MSLayerGroup" transform="translate(2.000000, 1.000000)">
                <path d="M36.0040645,15.4928033 C24.8272671,15.3583279 15.5663886,24.2015246 15.4519831,35.4109344 C15.3356602,46.805541 24.312975,55.9010656 35.5664688,55.9366557 L35.5477208,53.9248525 C25.6021139,53.9280492 17.3964502,45.7533934 17.3902718,35.831623 C17.3840935,25.7112295 25.5428872,17.470082 35.5215162,17.5169672 C45.7340693,17.5651311 53.7893228,25.5929508 53.7961403,35.7291148 C53.7961403,35.7446721 53.794862,35.7600164 53.794862,35.7755738 L55.7693685,35.7632131 C55.7693685,35.7504262 55.7697946,35.7378525 55.7697946,35.7250656 C55.8006862,24.755623 46.8001494,15.6228033 36.0040645,15.4928033" id="Fill-1" fill="#140480" sketch:type="MSShapeGroup"></path>
                <path d="M0.149344954,35.6800984 C5.16486408,33.8453934 10.1026216,32.039459 15.0891665,30.2151967 C11.6661631,26.1278689 8.27980356,22.0842295 4.82739988,17.9615246 C5.40304904,18.0418689 5.84149685,18.1028197 6.27994466,18.1639836 C5.83489244,18.0190656 5.38962717,17.8739344 4.94457495,17.7285902 C4.90409629,17.7722787 4.85317839,17.8097869 4.82441724,17.8602951 C1.63917272,23.4730984 0.0100131424,29.4929508 0.0967226949,35.9609836 C0.225615273,35.9377541 0.354507851,35.9140984 0.483400429,35.8906557 C0.392856056,35.833541 0.302311683,35.7764262 0.149344954,35.6800984" id="Fill-2" fill="#13027F" sketch:type="MSShapeGroup"></path>
                <path d="M18.4280169,8.43444262 C18.246289,7.34691803 18.0647742,6.25939344 17.8830463,5.17165574 C17.9226728,5.13052459 17.9620862,5.08918033 18.0017127,5.04804918 C22.0238002,8.41781967 26.0458878,11.787377 30.1067497,15.189541 C30.8924618,13.0400656 31.6611302,10.9523934 32.4187203,8.8602459 C33.4104475,6.12172131 34.3932268,3.38 35.3798409,0.639557377 C35.3915584,0.606311475 35.4032759,0.572852459 35.4147804,0.539180328 L35.4086021,0.546639344 C35.3994411,0.423245902 35.3902801,0.300065574 35.3811192,0.176885246 C35.3003749,0.177737705 35.2194176,0.178803279 35.1388864,0.180081967 C35.0161721,0.251901639 34.8919665,0.388081967 34.7720219,0.384459016 C34.2436688,0.36847541 33.7168071,0.31242623 33.1893062,0.270868852 C32.8865684,0.279393443 32.5823394,0.270868852 32.2813059,0.299639344 C28.8985682,0.623360656 25.6023269,1.34539344 22.4675742,2.6635082 C20.8190275,3.35677049 19.2471771,4.23245902 17.6406004,5.02588525 C17.8314892,6.06055738 18.0176911,7.09608197 18.2198713,8.12862295 C18.241815,8.23986885 18.3564336,8.333 18.4280169,8.43444262" id="Fill-3" fill="#13027F" sketch:type="MSShapeGroup"></path>
                <path d="M4.97482742,17.6608197 C4.94819672,17.6761639 4.93818358,17.6987541 4.94457495,17.7285902 C5.38962717,17.8739344 5.83489244,18.0190656 6.27994466,18.1639836 C6.41650688,18.2002131 6.55136474,18.2470984 6.69005741,18.2711803 C10.7161928,18.9742459 14.7423283,19.6758197 18.7688898,20.3752623 C19.3515695,20.4767049 19.9363796,20.5666393 20.5949035,20.6738361 C19.8596832,16.521082 19.14385,12.4778689 18.4280169,8.43444262 C18.3564336,8.333 18.241815,8.23986885 18.2198713,8.12862295 C18.0176911,7.09608197 17.8314892,6.06055738 17.6406004,5.02588525 C17.6090697,5.0194918 17.5858477,5.03036066 17.5709345,5.05870492 C17.5707214,5.09663934 17.5705084,5.13436066 17.5702954,5.17229508 C17.5400429,5.1552459 17.5102165,5.13840984 17.479964,5.12157377 C14.5593221,6.76490164 12.0038404,8.87132787 9.71274815,11.3023279 C7.9159217,13.2090656 6.31083627,15.2651967 5.03980632,17.5674754 C5.05663692,17.5979508 5.07325448,17.6284262 5.09008508,17.6589016 C5.05152383,17.659541 5.01317562,17.6603934 4.97482742,17.6608197" id="Fill-4" fill="#13027F" sketch:type="MSShapeGroup"></path>
                <path d="M8.53396694,38.8222623 C6.12101266,37.9442295 3.7048627,37.0757869 1.28999101,36.2032951 C1.14128519,36.1429836 0.992579373,36.0826721 0.843873556,36.0219344 L0.84366051,36.0291803 C0.724354984,35.9837869 0.605262503,35.9381803 0.486383067,35.8923607 L0.483400429,35.8906557 C0.354507851,35.9140984 0.225615273,35.9377541 0.0967226949,35.9609836 C0.0994922875,36.0841639 0.10226188,36.2071311 0.105031473,36.3305246 C0.464652418,36.8388033 0.35983399,37.3728689 0.19152798,37.9103443 C0.517700768,40.0485246 0.727124576,42.2127049 1.19689009,44.318918 C1.9101667,47.5171311 3.20079685,50.5116066 4.8817265,53.3939836 C8.29109497,49.3305246 11.6731936,45.299459 15.0898056,41.2270492 C12.8630532,40.4097541 10.7004275,39.6105738 8.53396694,38.8222623" id="Fill-5" fill="#13017F" sketch:type="MSShapeGroup"></path>
                <path id="Fill-6" fill="#13017F" sketch:type="MSShapeGroup" d="M0.843873556,36.0219344 L0.84366051,36.0291803 L0.843873556,36.0219344"></path>
                <path d="M53.2978267,5.25711475 C53.2910092,5.34768852 53.2820613,5.43804918 53.266509,5.52713115 C52.6407941,9.14134426 52.0108183,12.754918 51.3838251,16.368918 C51.1392488,17.7769672 50.8999986,19.186082 50.6477526,20.6567869 C50.8846593,20.6314262 51.0421,20.6233279 51.196345,20.5962623 C54.528591,20.012541 57.8597717,19.420082 61.193296,18.8438197 C62.8601646,18.5556885 64.5319333,18.2963279 66.2013585,18.0243934 C66.1016532,17.8200164 66.0151567,17.607541 65.8981946,17.4131803 C63.9356187,14.1435738 61.5642083,11.2000328 58.6137401,8.78459016 C56.940267,7.4142623 55.08954,6.2602459 53.3161486,5.01160656 C53.3093311,5.09322951 53.304218,5.1754918 53.2978267,5.25711475" id="Fill-7" fill="#13027F" sketch:type="MSShapeGroup"></path>
                <path id="Fill-8" fill="#13027F" sketch:type="MSShapeGroup" d="M53.3155094,5.01118033 C53.3157225,5.01139344 53.3159355,5.01139344 53.3161486,5.01160656 C53.3163616,5.01054098 53.3163616,5.00968852 53.3163616,5.00862295 C53.3161486,5.00840984 53.3159355,5.00819672 53.3157225,5.00798361 C53.3155094,5.00904918 53.3155094,5.01011475 53.3155094,5.01118033"></path>
                <path id="Fill-9" fill="#13027F" sketch:type="MSShapeGroup" d="M66.2013585,18.0243934 C66.1016532,17.8200164 66.0151567,17.607541 65.8981946,17.4131803 C66.0151567,17.607541 66.1016532,17.8200164 66.2013585,18.0243934"></path>
                <path d="M58.6137401,8.78459016 C56.9398409,7.41383607 55.0886878,6.25960656 53.3163616,5.00862295 C53.3163616,5.00968852 53.3163616,5.01054098 53.3161486,5.01160656 C55.08954,6.2602459 56.940267,7.4142623 58.6137401,8.78459016" id="Fill-10" fill="#13027F" sketch:type="MSShapeGroup"></path>
                <path id="Fill-11" fill="#13027F" sketch:type="MSShapeGroup" d="M66.2143543,18.0233279 L66.2149934,18.0226885 C66.2147804,18.0229016 66.2147804,18.0231148 66.2145673,18.0231148 L66.2156326,18.0220492 C66.2107325,18.0229016 66.2060455,18.0237541 66.2013585,18.0243934 C66.2015716,18.0248197 66.2015716,18.0250328 66.2017846,18.025459 C66.2060455,18.0248197 66.2103064,18.0241803 66.2143543,18.0233279"></path>
                <path id="Fill-12" fill="#13027F" sketch:type="MSShapeGroup" d="M53.3157225,5.00798361 C53.3163616,5.0007377 53.3167877,4.99327869 53.3174269,4.98581967 C53.3165747,4.98667213 53.3061354,4.99754098 53.304005,4.99988525 C53.3078398,5.00265574 53.3116746,5.00521311 53.3157225,5.00798361"></path>
                <path id="Fill-13" fill="#13027F" sketch:type="MSShapeGroup" d="M53.3155094,5.01118033 C53.308905,5.09280328 53.304218,5.17506557 53.2978267,5.25711475 C53.304218,5.1754918 53.3093311,5.09322951 53.3161486,5.01160656 C53.3159355,5.01139344 53.3157225,5.01139344 53.3155094,5.01118033"></path>
                <path id="Fill-14" fill="#13027F" sketch:type="MSShapeGroup" d="M66.2017846,18.025459 C66.2032759,18.0282295 66.2043411,18.0312131 66.2058325,18.0339836 C66.2058325,18.0339836 66.2139282,18.0241803 66.2143543,18.0233279 C66.2103064,18.0241803 66.2060455,18.0248197 66.2017846,18.025459"></path>
                <path d="M35.9891513,0.641262295 L35.9891513,0.641262295 C35.9667815,0.736311475 35.9444117,0.831147541 35.9218289,0.926409836 C35.9216158,0.926409836 35.9228941,0.938983607 35.9228941,0.938983607 C36.216684,1.09434426 36.4231251,1.28209836 36.1800401,1.63544262 C37.3577561,4.88736066 38.5344069,8.1394918 39.7136142,11.3907705 C40.1669752,12.6406885 40.6256623,13.8884754 41.1016061,15.1901803 C42.3193747,14.1691475 43.4796209,13.1935082 44.6432759,12.2221311 C47.5279131,9.81393443 50.4140416,7.40765574 53.299531,5.00052459 C51.803738,4.25206557 50.3403279,3.4277377 48.8044823,2.77347541 C46.5342685,1.80593443 44.1739365,1.09498361 41.717947,0.748885246 C41.6350723,0.727786885 41.5521976,0.706901639 41.4691098,0.686016393 C41.3466086,0.711377049 41.2243204,0.73695082 41.1018192,0.76252459 C40.9401176,0.691983607 40.778416,0.621229508 40.6167144,0.55047541 C40.535544,0.542377049 40.4543737,0.534065574 40.3729902,0.525967213 C40.0898527,0.488245902 39.8069281,0.45052459 39.5237906,0.413016393 C39.441981,0.40747541 39.3597455,0.402147541 39.2779359,0.396819672 C39.0887515,0.436245902 38.8980757,0.514459016 38.7101695,0.508278689 C38.0075451,0.485688525 37.3051338,0.447540984 36.60464,0.387229508 C36.4290904,0.372311475 36.2622757,0.254245902 36.0916262,0.183491803 C36.0460344,0.18242623 36.0008688,0.18157377 35.9557031,0.180721311 C35.9667815,0.334163934 35.9778599,0.487819672 35.9891513,0.641262295" id="Fill-15" fill="#13017F" sketch:type="MSShapeGroup"></path>
                <path d="M53.3005963,4.99945902 C51.803951,4.25206557 50.3403279,3.4277377 48.8044823,2.77347541 C50.3403279,3.4277377 51.803738,4.25206557 53.299531,5.00052459 C53.2999571,5.00009836 53.3001702,4.99988525 53.3005963,4.99945902" id="Fill-16" fill="#13017F" sketch:type="MSShapeGroup"></path>
                <path id="Fill-17" fill="#13017F" sketch:type="MSShapeGroup" d="M53.2997441,5.00052459 C53.2999571,5.00031148 53.3003832,4.99988525 53.3008093,4.99967213 L53.3005963,4.99945902 C53.3001702,4.99988525 53.2999571,5.00009836 53.299531,5.00052459 L53.2997441,5.00052459"></path>
                <path d="M44.6432759,12.2221311 C47.5283392,9.8135082 50.4146808,7.40701639 53.2997441,5.00052459 L53.299531,5.00052459 C50.4140416,7.40765574 47.5279131,9.81393443 44.6432759,12.2221311" id="Fill-18" fill="#13017F" sketch:type="MSShapeGroup"></path>
                <path id="Fill-19" fill="#13017F" sketch:type="MSShapeGroup" d="M53.304005,4.99988525 L53.3037919,4.99967213 C53.3037919,4.99967213 53.3165747,4.98667213 53.3174269,4.98581967 C53.3118877,4.9905082 53.3063485,4.99498361 53.3008093,4.99967213 C53.3016615,5.00009836 53.3023006,5.00031148 53.3029398,5.0007377 C53.3029398,5.0007377 53.3037919,4.99988525 53.304005,4.99988525"></path>
                <path id="Fill-20" fill="#13017F" sketch:type="MSShapeGroup" d="M53.304005,4.99988525 C53.3061354,4.99754098 53.3165747,4.98667213 53.3174269,4.98581967 C53.3165747,4.98667213 53.3037919,4.99967213 53.3037919,4.99967213 L53.304005,4.99988525"></path>
                <path d="M4.91496161,53.470918 C8.15495884,58.9108852 12.4222619,63.1476066 17.86792,66.3181148 C18.7795421,61.0978689 19.6758249,55.9647869 20.5863817,50.7507213 C15.3209601,51.6647705 10.1644048,52.5596393 4.91496161,53.470918" id="Fill-21" fill="#13027F" sketch:type="MSShapeGroup"></path>
                <path d="M65.9640257,18.4188689 C62.8314035,22.1699016 59.6955855,25.9185902 56.5604067,29.6677049 C56.4221401,29.833082 56.2851518,29.9999508 56.1053414,30.2173279 C61.0739905,32.0322131 65.9719084,33.8206721 70.910305,35.6242623 C70.910305,35.2645246 70.9179747,34.9812951 70.9092398,34.6987049 C70.7867386,30.7978525 70.1335408,26.988 68.708692,23.3518361 C68.1737345,21.9872623 67.5071149,20.6742623 66.8522128,19.3565738 C66.8292038,19.310541 66.806621,19.2642951 66.7838251,19.2180492 C66.6975417,19.0443607 66.6114713,18.8706721 66.526253,18.6965574 C66.483857,18.6102459 66.4425261,18.5235082 66.4005561,18.4369836 C66.3357903,18.3035738 66.2705983,18.170377 66.2068977,18.0363279 C66.1274317,18.1656885 66.0598962,18.3042131 65.9640257,18.4188689" id="Fill-22" fill="#13027F" sketch:type="MSShapeGroup"></path>
                <path id="Fill-23" fill="#13027F" sketch:type="MSShapeGroup"></path>
                <path id="Fill-24" fill="#13027F" sketch:type="MSShapeGroup" d="M66.7838251,19.2180492 C66.806621,19.2642951 66.8292038,19.310541 66.8522128,19.3565738 C66.8292038,19.310541 66.806621,19.2642951 66.7838251,19.2180492"></path>
                <path id="Fill-25" fill="#13027F" sketch:type="MSShapeGroup" d="M66.2068977,18.0363279 L66.2068977,18.0363279 C66.2096673,18.0320656 66.2120108,18.0275902 66.2145673,18.0231148 L66.2145673,18.0233279 C66.2117977,18.0275902 66.2094542,18.0320656 66.2068977,18.0363279"></path>
                <path id="Fill-26" fill="#13027F" sketch:type="MSShapeGroup" d="M66.2145673,18.0233279 L66.2058325,18.0339836 C66.2062586,18.0348361 66.2064716,18.0354754 66.2068977,18.0363279 C66.2094542,18.0320656 66.2117977,18.0275902 66.2145673,18.0233279"></path>
                <path id="Fill-27" fill="#13027F" sketch:type="MSShapeGroup" d="M66.2058325,18.0339836 C66.2062586,18.0348361 66.2066847,18.0354754 66.2068977,18.0363279 C66.2064716,18.0354754 66.2062586,18.0348361 66.2058325,18.0339836"></path>
                <path id="Fill-28" fill="#13027F" sketch:type="MSShapeGroup" d="M66.4005561,18.4369836 C66.4425261,18.5235082 66.483857,18.6102459 66.526253,18.6965574 C66.483857,18.6102459 66.4425261,18.5235082 66.4005561,18.4369836"></path>
                <path id="Fill-29" fill="#13027F" sketch:type="MSShapeGroup" d="M66.2143543,18.0233279 L66.2145673,18.0233279 L66.2145673,18.0231148 C66.2147804,18.0231148 66.2147804,18.0229016 66.2149934,18.0226885 L66.2143543,18.0233279"></path>
                <path id="Fill-30" fill="#13027F" sketch:type="MSShapeGroup" d="M66.2145673,18.0233279 L66.2143543,18.0233279 C66.2139282,18.0241803 66.2058325,18.0339836 66.2058325,18.0339836 L66.2145673,18.0233279"></path>
                <path d="M17.9948952,66.3878033 C23.4518448,69.455377 29.2394411,70.9719016 35.5008508,71.022623 C33.6908155,66.0634426 31.9144414,61.1959016 30.1086671,56.2484426 C26.0450356,59.649541 22.0512831,62.992459 17.9948952,66.3878033" id="Fill-31" fill="#13027F" sketch:type="MSShapeGroup"></path>
                <path id="Fill-32" fill="#160681" sketch:type="MSShapeGroup" d="M38.7101695,0.508278689 C38.8980757,0.514459016 39.0887515,0.436245902 39.2779359,0.396819672 C38.2159037,0.325639344 37.1538715,0.254459016 36.0916262,0.183491803 C36.2622757,0.254245902 36.4290904,0.372311475 36.60464,0.387229508 C37.3051338,0.447540984 38.0075451,0.485688525 38.7101695,0.508278689"></path>
                <path id="Fill-33" fill="#160681" sketch:type="MSShapeGroup" d="M35.1388864,0.180081967 C34.4890973,0.210131148 33.8393083,0.240393443 33.1893062,0.270868852 C33.7168071,0.31242623 34.2436688,0.36847541 34.7720219,0.384459016 C34.8919665,0.388081967 35.0161721,0.251901639 35.1388864,0.180081967"></path>
                <path id="Fill-34" fill="#13027F" sketch:type="MSShapeGroup" d="M0.105031473,36.3305246 C0.133792626,36.856918 0.162766826,37.3837377 0.19152798,37.9103443 C0.35983399,37.3728689 0.464652418,36.8388033 0.105031473,36.3305246"></path>
                <path id="Fill-35" fill="#160681" sketch:type="MSShapeGroup" d="M35.6009822,0.24252459 C35.6862005,0.391704918 35.7607664,0.521918033 35.8346932,0.651918033 C35.8862503,0.648295082 35.9378073,0.644672131 35.9891513,0.641262295 C35.9778599,0.487606557 35.9667815,0.334163934 35.9557031,0.180721311 C35.7641751,0.179229508 35.5726472,0.17795082 35.3811192,0.176885246 C35.3902801,0.300065574 35.3994411,0.423245902 35.4086021,0.54642623 C35.4663374,0.45542623 35.5238597,0.36442623 35.6009822,0.24252459"></path>
                <path id="Fill-36" fill="#160681" sketch:type="MSShapeGroup" d="M35.9891513,0.641262295 C35.9778599,0.487819672 35.9667815,0.334163934 35.9557031,0.180721311 C35.9667815,0.334163934 35.9778599,0.487606557 35.9891513,0.641262295"></path>
                <path id="Fill-37" fill="#13027F" sketch:type="MSShapeGroup" d="M35.9228941,0.938983607 C36.0087515,1.17127869 36.0943958,1.40336066 36.1800401,1.63544262 C36.4231251,1.28209836 36.216684,1.09434426 35.9228941,0.938983607"></path>
                <path id="Fill-38" fill="#13027F" sketch:type="MSShapeGroup" d="M35.9891513,0.641262295 L35.9891513,0.641262295 C35.9378073,0.644672131 35.8862503,0.648295082 35.8346932,0.651918033 C35.8638805,0.743344262 35.8928547,0.834983607 35.9218289,0.926409836 C35.9444117,0.831147541 35.9667815,0.736311475 35.9891513,0.641262295"></path>
                <path id="Fill-39" fill="#13027F" sketch:type="MSShapeGroup"></path>
                <path id="Fill-40" fill="#13027F" sketch:type="MSShapeGroup" d="M5.09008508,17.6589016 C5.07325448,17.6284262 5.05663692,17.5979508 5.03980632,17.5674754 C5.01807567,17.5985902 4.99634502,17.6297049 4.97482742,17.6608197 C5.01317562,17.6603934 5.05152383,17.659541 5.09008508,17.6589016"></path>
                <path id="Fill-41" fill="#13027F" sketch:type="MSShapeGroup" d="M17.5709345,5.05870492 C17.521934,5.0527377 17.4914685,5.07383607 17.479964,5.12157377 C17.5102165,5.13840984 17.5400429,5.1552459 17.5702954,5.17229508 C17.5705084,5.13436066 17.5707214,5.09663934 17.5709345,5.05870492"></path>
                <path id="Fill-42" fill="#160681" sketch:type="MSShapeGroup" d="M35.4147804,0.539180328 C35.4032759,0.572852459 35.3915584,0.606311475 35.3798409,0.639557377 C35.4169108,0.61504918 35.4286283,0.581590164 35.4147804,0.539180328"></path>
                <path d="M76.0191381,70.716377 L53.1241945,47.8137869 C52.1821069,46.8716066 50.7063402,46.7933934 49.6720039,47.5740328 C49.616612,47.2957049 49.4921934,47.0427377 49.2915045,46.842623 C48.6157239,46.166623 47.3538549,46.3332787 46.4724853,47.2147213 L46.1801868,47.5071148 C45.2990302,48.3887705 45.1324286,49.6510492 45.8082092,50.3268361 C46.008472,50.5275902 46.2611441,50.6520492 46.5395947,50.7076721 C45.7589956,51.7421311 45.8369703,53.218377 46.7792709,54.1609836 L69.6742146,77.0631475 C70.7049291,78.0939836 72.3758456,78.0939836 73.4067732,77.0631475 L76.0191381,74.4499344 C77.0496396,73.4188852 77.0496396,71.7472131 76.0191381,70.716377" id="Fill-43" fill="#000000" sketch:type="MSShapeGroup"></path>
                <path d="M50.4776091,36.0298955 C50.4550687,44.1151181 43.9256024,50.6474886 35.8923969,50.622588 C27.7668737,50.5970993 21.2850363,44.030221 21.3689259,35.8030457 C21.4516394,27.7099804 28.1379085,21.3252485 36.2073746,21.4223018 C44.0014558,21.5160219 50.5001495,28.1101536 50.4776091,36.0298955 L50.4776091,36.0298955 Z M35.8888688,49.1705144 C43.1909811,49.1618875 49.0571713,43.3069291 49.0524672,36.0328365 C49.0477632,28.7144326 43.2319458,22.9184905 35.8590763,22.8837866 C28.6545738,22.849867 22.7638831,28.800114 22.7683912,36.1069499 C22.7728993,43.2735977 28.7033787,49.1787493 35.8888688,49.1705144 L35.8888688,49.1705144 Z" id="Fill-44" stroke="#000000" fill="#000000" sketch:type="MSShapeGroup"></path>
                <path d="M47.8898776,52.8062131 C55.1575016,60.0691639 62.4251255,67.3321148 69.6925365,74.5950656 C69.9507477,74.8531475 70.2087459,75.1110164 70.4669572,75.3688852 C71.050489,75.9523934 71.9544414,75.0479344 71.3706965,74.4648525 C64.1030726,67.2019016 56.8354486,59.9389508 49.5680376,52.6757869 C49.3098264,52.417918 49.0518282,52.1600492 48.7936169,51.9021803 C48.2100851,51.3188852 47.3061327,52.222918 47.8898776,52.8062131" id="Fill-46" fill="#FFFFFF" sketch:type="MSShapeGroup"></path>
            </g>
        </g>
    </g>
</svg>