<?xml version="1.0" encoding="UTF-8" standalone="no"?>
<svg width="800px" height="800px" viewBox="0 0 800 800" version="1.1" xmlns="http://www.w3.org/2000/svg" xmlns:xlink="http://www.w3.org/1999/xlink" xmlns:sketch="http://www.bohemiancoding.com/sketch/ns">
    <!-- Generator: Sketch 3.3.1 (12002) - http://www.bohemiancoding.com/sketch -->
    <title>800</title>
    <desc>Created with Sketch.</desc>
    <defs></defs>
    <g id="Page-1" stroke="none" stroke-width="1" fill="none" fill-rule="evenodd" sketch:type="MSPage">
        <g id="800" sketch:type="MSArtboardGroup">
            <g id="Imported-Layers" sketch:type="MSLayerGroup" transform="translate(12.368852, 7.000000)">
                <path d="M362.927984,156.119787 C250.263689,154.764689 156.91223,243.876902 155.759,356.833262 C154.586443,471.655836 245.079525,563.310738 358.516934,563.669377 L358.327951,543.39659 C258.074295,543.428803 175.359607,461.053426 175.297328,361.072508 C175.235049,259.090082 257.477279,176.044672 358.063803,176.517131 C461.008328,177.002475 542.206852,257.898197 542.275574,360.039541 C542.275574,360.196311 542.262689,360.350934 542.262689,360.507705 L562.166098,360.383148 C562.166098,360.254295 562.170393,360.12759 562.170393,359.998738 C562.481787,249.460508 471.754623,157.429787 362.927984,156.119787" id="Fill-1" fill="#140480" sketch:type="MSShapeGroup"></path>
                <path d="M1.50542623,359.545607 C52.0628361,341.057426 101.836393,322.859164 152.101738,304.476213 C117.597197,263.288525 83.4620328,222.541082 48.6611311,180.996902 C54.4637869,181.806525 58.8834262,182.420721 63.3030656,183.037066 C58.8168525,181.576738 54.3284918,180.114262 49.8422787,178.649639 C49.4342459,179.089885 48.9209836,179.467852 48.6310656,179.97682 C16.5231803,236.536607 0.100934426,297.198197 0.974983607,362.376066 C2.2742459,362.141984 3.5735082,361.903607 4.87277049,361.667377 C3.96006557,361.091836 3.04736066,360.516295 1.50542623,359.545607" id="Fill-2" fill="#13027F" sketch:type="MSShapeGroup"></path>
                <path d="M185.758,84.9932295 C183.926148,74.0343279 182.096443,63.0754262 180.26459,52.114377 C180.664033,51.6999016 181.061328,51.2832787 181.46077,50.8688033 C222.004197,84.8257213 262.547623,118.780492 303.481902,153.063836 C311.402033,131.403738 319.150361,110.366426 326.787016,89.2840164 C336.78382,61.6881148 346.690426,34.06 356.635689,6.44477049 C356.753803,6.1097541 356.871918,5.77259016 356.987885,5.43327869 L356.925607,5.50844262 C356.833262,4.26501639 356.740918,3.0237377 356.648574,1.78245902 C355.834656,1.79104918 355.01859,1.80178689 354.20682,1.81467213 C352.969836,2.53839344 351.71782,3.91067213 350.508754,3.87416393 C345.182852,3.71309836 339.871984,3.14829508 334.554672,2.72952459 C331.503016,2.81542623 328.436328,2.72952459 325.401852,3.01944262 C291.303197,6.28155738 258.076443,13.5574262 226.477525,26.8399672 C209.859852,33.825918 194.015295,42.6501639 177.820689,50.645459 C179.744885,61.0717705 181.621836,71.5066721 183.659852,81.9115082 C183.881049,83.0325246 185.036426,83.971 185.758,84.9932295" id="Fill-3" fill="#13027F" sketch:type="MSShapeGroup"></path>
                <path d="M50.1472295,177.966721 C49.8787869,178.121344 49.7778525,178.348984 49.8422787,178.649639 C54.3284918,180.114262 58.8168525,181.576738 63.3030656,183.037066 C64.6796393,183.402148 66.0390328,183.874607 67.437082,184.117279 C108.021311,191.202016 148.605541,198.271721 189.194066,205.319951 C195.06759,206.34218 200.96259,207.248443 207.600639,208.328656 C200.189475,166.481672 192.973738,125.738525 185.758,84.9932295 C185.036426,83.971 183.881049,83.0325246 183.659852,81.9115082 C181.621836,71.5066721 179.744885,61.0717705 177.820689,50.645459 C177.502852,50.5810328 177.26877,50.6905574 177.118443,50.9761803 C177.116295,51.3584426 177.114148,51.7385574 177.112,52.1208197 C176.807049,51.9490164 176.506393,51.7793607 176.201443,51.6097049 C146.760803,68.1693934 121.001049,89.3956885 97.9063934,113.892689 C79.7940328,133.106738 63.614459,153.826213 50.8022295,177.026098 C50.9718852,177.333197 51.1393934,177.640295 51.3090492,177.947393 C50.9203443,177.953836 50.5337869,177.962426 50.1472295,177.966721" id="Fill-4" fill="#13027F" sketch:type="MSShapeGroup"></path>
                <path d="M86.0240492,391.208951 C61.701,382.361082 37.3457377,373.609852 13.0033607,364.81782 C11.504377,364.210066 10.0053934,363.602311 8.50640984,362.990262 L8.5042623,363.063279 C7.30163934,362.605852 6.10116393,362.146279 4.90283607,361.684557 L4.87277049,361.667377 C3.5735082,361.903607 2.2742459,362.141984 0.974983607,362.376066 C1.00290164,363.617344 1.03081967,364.856475 1.0587377,366.099902 C4.68378689,371.221787 3.62719672,376.603525 1.93063934,382.019623 C5.21852459,403.565902 7.32955738,425.37418 12.0648852,446.598328 C19.2548525,478.826475 32.2646557,509.001574 49.2087541,538.047066 C83.5758525,497.099902 117.668066,456.479164 152.10818,415.441803 C129.662082,407.205984 107.862393,399.152705 86.0240492,391.208951" id="Fill-5" fill="#13017F" sketch:type="MSShapeGroup"></path>
                <path d="M8.50640984,362.990262 L8.5042623,363.063279 L8.50640984,362.990262" id="Fill-6" fill="#13017F" sketch:type="MSShapeGroup"></path>
                <path d="M537.252475,52.975541 C537.183754,53.8882459 537.093557,54.7988033 536.936787,55.6964754 C530.629459,92.116623 524.27918,128.530328 517.958967,164.948328 C515.49359,179.137131 513.081902,193.336672 510.539213,208.156852 C512.927279,207.901295 514.514311,207.819689 516.069131,207.546951 C549.65882,201.664836 583.23777,195.694672 616.840344,189.887721 C633.642705,186.984246 650.494459,184.370689 667.32259,181.630426 C666.317541,179.570934 665.445639,177.429836 664.266639,175.471279 C644.483492,142.523705 620.579213,112.861869 590.837918,88.5216393 C573.968984,74.7129508 555.313295,63.0840164 537.437164,50.5015738 C537.368443,51.324082 537.316902,52.1530328 537.252475,52.975541" id="Fill-7" fill="#13027F" sketch:type="MSShapeGroup"></path>
                <path d="M537.430721,50.4972787 C537.432869,50.4994262 537.435016,50.4994262 537.437164,50.5015738 C537.439311,50.4908361 537.439311,50.4822459 537.439311,50.4715082 C537.437164,50.4693607 537.435016,50.4672131 537.432869,50.4650656 C537.430721,50.4758033 537.430721,50.486541 537.430721,50.4972787" id="Fill-8" fill="#13027F" sketch:type="MSShapeGroup"></path>
                <path d="M667.32259,181.630426 C666.317541,179.570934 665.445639,177.429836 664.266639,175.471279 C665.445639,177.429836 666.317541,179.570934 667.32259,181.630426" id="Fill-9" fill="#13027F" sketch:type="MSShapeGroup"></path>
                <path d="M590.837918,88.5216393 C573.964689,74.7086557 555.304705,63.0775738 537.439311,50.4715082 C537.439311,50.4822459 537.439311,50.4908361 537.437164,50.5015738 C555.313295,63.0840164 573.968984,74.7129508 590.837918,88.5216393" id="Fill-10" fill="#13027F" sketch:type="MSShapeGroup"></path>
                <path d="M667.45359,181.619689 L667.460033,181.613246 C667.457885,181.615393 667.457885,181.617541 667.455738,181.617541 L667.466475,181.606803 C667.417082,181.615393 667.369836,181.623984 667.32259,181.630426 C667.324738,181.634721 667.324738,181.636869 667.326885,181.641164 C667.369836,181.634721 667.412787,181.628279 667.45359,181.619689" id="Fill-11" fill="#13027F" sketch:type="MSShapeGroup"></path>
                <path d="M537.432869,50.4650656 C537.439311,50.3920492 537.443607,50.3168852 537.450049,50.2417213 C537.441459,50.2503115 537.33623,50.3598361 537.314754,50.383459 C537.35341,50.411377 537.392066,50.4371475 537.432869,50.4650656" id="Fill-12" fill="#13027F" sketch:type="MSShapeGroup"></path>
                <path d="M537.430721,50.4972787 C537.364148,51.3197869 537.316902,52.1487377 537.252475,52.975541 C537.316902,52.1530328 537.368443,51.324082 537.437164,50.5015738 C537.435016,50.4994262 537.432869,50.4994262 537.430721,50.4972787" id="Fill-13" fill="#13027F" sketch:type="MSShapeGroup"></path>
                <path d="M667.326885,181.641164 C667.341918,181.669082 667.352656,181.699148 667.367689,181.727066 C667.367689,181.727066 667.449295,181.628279 667.45359,181.619689 C667.412787,181.628279 667.369836,181.634721 667.326885,181.641164" id="Fill-14" fill="#13027F" sketch:type="MSShapeGroup"></path>
                <path d="M362.777656,6.46195082 L362.777656,6.46195082 C362.552164,7.4197541 362.326672,8.37540984 362.099033,9.33536066 C362.096885,9.33536066 362.10977,9.46206557 362.10977,9.46206557 C365.07123,11.027623 367.152197,12.9196066 364.701852,16.4802295 C376.573459,49.2495574 388.434328,82.0210328 400.320967,114.783918 C404.890934,127.379246 409.51459,139.953098 414.312197,153.070279 C426.587541,142.78141 438.283049,132.949967 450.012918,123.161475 C479.090623,98.8942623 508.183361,74.646377 537.269656,50.3899016 C522.19177,42.8477377 507.440311,34.5410492 491.958689,27.9480984 C469.074492,18.1982623 445.281885,11.0340656 420.525033,7.54645902 C419.689639,7.33385246 418.854246,7.12339344 418.016705,6.91293443 C416.781869,7.1684918 415.54918,7.42619672 414.314344,7.68390164 C412.684361,6.97306557 411.054377,6.26008197 409.424393,5.54709836 C408.60618,5.4654918 407.787967,5.3817377 406.967607,5.30013115 C404.113525,4.92001639 401.26159,4.53990164 398.407508,4.16193443 C397.582852,4.10609836 396.753902,4.05240984 395.929246,3.99872131 C394.02223,4.39601639 392.10018,5.18416393 390.206049,5.12188525 C383.123459,4.8942459 376.043016,4.50983607 368.981902,3.90208197 C367.212328,3.7517541 365.530803,2.56201639 363.810623,1.84903279 C363.351049,1.83829508 362.89577,1.82970492 362.440492,1.82111475 C362.552164,3.36734426 362.663836,4.91572131 362.777656,6.46195082" id="Fill-15" fill="#13017F" sketch:type="MSShapeGroup"></path>
                <path d="M537.280393,50.3791639 C522.193918,42.8477377 507.440311,34.5410492 491.958689,27.9480984 C507.440311,34.5410492 522.19177,42.8477377 537.269656,50.3899016 C537.273951,50.3856066 537.276098,50.383459 537.280393,50.3791639" id="Fill-16" fill="#13017F" sketch:type="MSShapeGroup"></path>
                <path d="M537.271803,50.3899016 C537.273951,50.3877541 537.278246,50.383459 537.282541,50.3813115 L537.280393,50.3791639 C537.276098,50.383459 537.273951,50.3856066 537.269656,50.3899016 L537.271803,50.3899016" id="Fill-17" fill="#13017F" sketch:type="MSShapeGroup"></path>
                <path d="M450.012918,123.161475 C479.094918,98.8899672 508.189803,74.6399344 537.271803,50.3899016 L537.269656,50.3899016 C508.183361,74.646377 479.090623,98.8942623 450.012918,123.161475" id="Fill-18" fill="#13017F" sketch:type="MSShapeGroup"></path>
                <path d="M537.314754,50.383459 L537.312607,50.3813115 C537.312607,50.3813115 537.441459,50.2503115 537.450049,50.2417213 C537.394213,50.2889672 537.338377,50.3340656 537.282541,50.3813115 C537.291131,50.3856066 537.297574,50.3877541 537.304016,50.3920492 C537.304016,50.3920492 537.312607,50.383459 537.314754,50.383459" id="Fill-19" fill="#13017F" sketch:type="MSShapeGroup"></path>
                <path d="M537.314754,50.383459 C537.33623,50.3598361 537.441459,50.2503115 537.450049,50.2417213 C537.441459,50.2503115 537.312607,50.3813115 537.312607,50.3813115 L537.314754,50.383459" id="Fill-20" fill="#13017F" sketch:type="MSShapeGroup"></path>
                <path d="M49.5437705,538.822328 C82.2035738,593.640459 125.21882,636.333574 180.112115,668.282541 C189.301443,615.678525 198.336148,563.952852 207.514738,511.411115 C154.438262,520.621918 102.45918,529.639443 49.5437705,538.822328" id="Fill-21" fill="#13027F" sketch:type="MSShapeGroup"></path>
                <path d="M664.93023,185.605525 C633.352787,223.404393 601.743131,261.179639 570.139918,298.95918 C568.746164,300.625672 567.365295,302.307197 565.55277,304.497689 C615.637721,322.786148 665.009689,340.808311 714.789689,358.982951 C714.789689,355.357902 714.867,352.50382 714.778951,349.65618 C713.544115,310.34759 706.959754,271.956 692.597,235.314656 C687.204525,221.563951 680.484869,208.332951 673.883328,195.054705 C673.651393,194.590836 673.423754,194.12482 673.193967,193.658803 C672.324213,191.908557 671.456607,190.158311 670.59759,188.40377 C670.17023,187.534016 669.753607,186.659967 669.330541,185.788066 C668.677689,184.443705 668.020541,183.101492 667.378426,181.750689 C666.577393,183.054246 665.896623,184.450148 664.93023,185.605525" id="Fill-22" fill="#13027F" sketch:type="MSShapeGroup"></path>
                <path id="Fill-23" fill="#13027F" sketch:type="MSShapeGroup"></path>
                <path d="M673.193967,193.658803 C673.423754,194.12482 673.651393,194.590836 673.883328,195.054705 C673.651393,194.590836 673.423754,194.12482 673.193967,193.658803" id="Fill-24" fill="#13027F" sketch:type="MSShapeGroup"></path>
                <path d="M667.378426,181.750689 L667.378426,181.750689 C667.406344,181.707738 667.429967,181.662639 667.455738,181.617541 L667.455738,181.619689 C667.42782,181.662639 667.404197,181.707738 667.378426,181.750689" id="Fill-25" fill="#13027F" sketch:type="MSShapeGroup"></path>
                <path d="M667.455738,181.619689 L667.367689,181.727066 C667.371984,181.735656 667.374131,181.742098 667.378426,181.750689 C667.404197,181.707738 667.42782,181.662639 667.455738,181.619689" id="Fill-26" fill="#13027F" sketch:type="MSShapeGroup"></path>
                <path d="M667.367689,181.727066 C667.371984,181.735656 667.376279,181.742098 667.378426,181.750689 C667.374131,181.742098 667.371984,181.735656 667.367689,181.727066" id="Fill-27" fill="#13027F" sketch:type="MSShapeGroup"></path>
                <path d="M669.330541,185.788066 C669.753607,186.659967 670.17023,187.534016 670.59759,188.40377 C670.17023,187.534016 669.753607,186.659967 669.330541,185.788066" id="Fill-28" fill="#13027F" sketch:type="MSShapeGroup"></path>
                <path d="M667.45359,181.619689 L667.455738,181.619689 L667.455738,181.617541 C667.457885,181.617541 667.457885,181.615393 667.460033,181.613246 L667.45359,181.619689" id="Fill-29" fill="#13027F" sketch:type="MSShapeGroup"></path>
                <path d="M667.455738,181.619689 L667.45359,181.619689 C667.449295,181.628279 667.367689,181.727066 667.367689,181.727066 L667.455738,181.619689" id="Fill-30" fill="#13027F" sketch:type="MSShapeGroup"></path>
                <path d="M181.392049,668.984787 C236.399164,699.896492 294.739262,715.178393 357.855492,715.689508 C339.609984,665.71623 321.703787,616.666393 303.50123,566.81123 C262.539033,601.083836 222.28123,634.770164 181.392049,668.984787" id="Fill-31" fill="#13027F" sketch:type="MSShapeGroup"></path>
                <path d="M390.206049,5.12188525 C392.10018,5.18416393 394.02223,4.39601639 395.929246,3.99872131 C385.223754,3.28144262 374.518262,2.56416393 363.810623,1.84903279 C365.530803,2.56201639 367.212328,3.7517541 368.981902,3.90208197 C376.043016,4.50983607 383.123459,4.8942459 390.206049,5.12188525" id="Fill-32" fill="#160681" sketch:type="MSShapeGroup"></path>
                <path d="M354.20682,1.81467213 C347.65682,2.11747541 341.10682,2.42242623 334.554672,2.72952459 C339.871984,3.14829508 345.182852,3.71309836 350.508754,3.87416393 C351.71782,3.91067213 352.969836,2.53839344 354.20682,1.81467213" id="Fill-33" fill="#160681" sketch:type="MSShapeGroup"></path>
                <path d="M1.0587377,366.099902 C1.34865574,371.404328 1.64072131,376.713049 1.93063934,382.019623 C3.62719672,376.603525 4.68378689,371.221787 1.0587377,366.099902" id="Fill-34" fill="#13027F" sketch:type="MSShapeGroup"></path>
                <path d="M358.864836,2.44390164 C359.723852,3.94718033 360.475492,5.25932787 361.220689,6.56932787 C361.740393,6.53281967 362.260098,6.49631148 362.777656,6.46195082 C362.663836,4.91357377 362.552164,3.36734426 362.440492,1.82111475 C360.509852,1.80608197 358.579213,1.79319672 356.648574,1.78245902 C356.740918,3.0237377 356.833262,4.26501639 356.925607,5.50629508 C357.50759,4.58929508 358.087426,3.67229508 358.864836,2.44390164" id="Fill-35" fill="#160681" sketch:type="MSShapeGroup"></path>
                <path d="M362.777656,6.46195082 C362.663836,4.91572131 362.552164,3.36734426 362.440492,1.82111475 C362.552164,3.36734426 362.663836,4.91357377 362.777656,6.46195082" id="Fill-36" fill="#160681" sketch:type="MSShapeGroup"></path>
                <path d="M362.10977,9.46206557 C362.97523,11.8028852 363.838541,14.1415574 364.701852,16.4802295 C367.152197,12.9196066 365.07123,11.027623 362.10977,9.46206557" id="Fill-37" fill="#13027F" sketch:type="MSShapeGroup"></path>
                <path d="M362.777656,6.46195082 L362.777656,6.46195082 C362.260098,6.49631148 361.740393,6.53281967 361.220689,6.56932787 C361.514902,7.49062295 361.806967,8.41406557 362.099033,9.33536066 C362.326672,8.37540984 362.552164,7.4197541 362.777656,6.46195082" id="Fill-38" fill="#13027F" sketch:type="MSShapeGroup"></path>
                <path id="Fill-39" fill="#13027F" sketch:type="MSShapeGroup"></path>
                <path d="M51.3090492,177.947393 C51.1393934,177.640295 50.9718852,177.333197 50.8022295,177.026098 C50.5831803,177.339639 50.3641311,177.65318 50.1472295,177.966721 C50.5337869,177.962426 50.9203443,177.953836 51.3090492,177.947393" id="Fill-40" fill="#13027F" sketch:type="MSShapeGroup"></path>
                <path d="M177.118443,50.9761803 C176.624508,50.9160492 176.31741,51.1286557 176.201443,51.6097049 C176.506393,51.7793607 176.807049,51.9490164 177.112,52.1208197 C177.114148,51.7385574 177.116295,51.3584426 177.118443,50.9761803" id="Fill-41" fill="#13027F" sketch:type="MSShapeGroup"></path>
                <path d="M356.987885,5.43327869 C356.871918,5.77259016 356.753803,6.1097541 356.635689,6.44477049 C357.009361,6.19780328 357.127475,5.86063934 356.987885,5.43327869" id="Fill-42" fill="#160681" sketch:type="MSShapeGroup"></path>
                <path d="M766.287721,712.603492 L535.50223,481.815852 C526.005803,472.321574 511.129787,471.533426 500.703475,479.399869 C500.145115,476.59518 498.890951,474.046049 496.867967,472.029508 C490.055967,465.217508 477.336082,466.896885 468.451705,475.779115 L465.505279,478.725541 C456.623049,487.609918 454.943672,500.329803 461.755672,507.139656 C463.774361,509.162639 466.321344,510.416803 469.12818,510.977311 C461.25959,521.401475 462.04559,536.277492 471.544164,545.776066 L702.329656,776.55941 C712.719459,786.947066 729.562623,786.947066 739.954574,776.55941 L766.287721,750.226262 C776.675377,739.836459 776.675377,722.991148 766.287721,712.603492" id="Fill-43" fill="#000000" sketch:type="MSShapeGroup"></path>
                <path d="M519.404262,359.071 C519.157295,447.629148 447.616262,519.17877 359.599295,518.906033 C270.570836,518.626852 199.551656,446.699262 200.470803,356.586295 C201.377066,267.942246 274.636131,198.009721 363.050393,199.072754 C448.447361,200.099279 519.65123,272.325377 519.404262,359.071 L519.404262,359.071 Z M359.560639,503.001344 C439.567279,502.906852 503.841033,438.776984 503.789492,359.103213 C503.737951,278.944098 440.016115,215.460639 359.234213,215.080525 C280.297049,214.709 215.754852,279.882574 215.804246,359.914984 C215.853639,438.411902 280.831787,503.091541 359.560639,503.001344 L359.560639,503.001344 Z" id="Fill-44" fill="#000000" sketch:type="MSShapeGroup"></path>
                <path d="M519.404262,359.071 C519.157295,447.629148 447.616262,519.17877 359.599295,518.906033 C270.570836,518.626852 199.551656,446.699262 200.470803,356.586295 C201.377066,267.942246 274.636131,198.009721 363.050393,199.072754 C448.447361,200.099279 519.65123,272.325377 519.404262,359.071 L519.404262,359.071 Z M359.560639,503.001344 C439.567279,502.906852 503.841033,438.776984 503.789492,359.103213 C503.737951,278.944098 440.016115,215.460639 359.234213,215.080525 C280.297049,214.709 215.754852,279.882574 215.804246,359.914984 C215.853639,438.411902 280.831787,503.091541 359.560639,503.001344 L359.560639,503.001344 Z" id="Stroke-45" stroke="#000000" stroke-width="6" sketch:type="MSShapeGroup"></path>
                <path d="M482.739295,532.124148 C555.998361,605.312344 629.257426,678.500541 702.514344,751.688738 C705.117164,754.28941 707.717836,756.887934 710.320656,759.486459 C716.20277,765.366426 725.314787,756.252262 719.430525,750.37659 C646.171459,677.188393 572.912393,604.000197 499.655475,530.809852 C497.052656,528.211328 494.451984,525.612803 491.849164,523.014279 C485.967049,517.136459 476.855033,526.246328 482.739295,532.124148" id="Fill-46" fill="#FFFFFF" sketch:type="MSShapeGroup"></path>
                <path d="M477.299574,359.983705 C477.299574,425.290426 424.362689,478.229459 359.055967,478.229459 C293.751393,478.229459 240.812361,425.290426 240.812361,359.983705 C240.812361,294.681279 293.751393,241.740098 359.055967,241.740098 C424.362689,241.740098 477.299574,294.681279 477.299574,359.983705" id="Fill-47" fill="#B3B3B3" sketch:type="MSShapeGroup"></path>
                <path d="M442.681213,443.608951 C487.805344,398.48482 488.808246,325.979541 445.743607,279.605541 L278.677803,446.671344 C325.051803,489.738131 397.557082,488.73523 442.681213,443.608951" id="Fill-48" fill="#CCCCCC" sketch:type="MSShapeGroup"></path>
            </g>
        </g>
    </g>
</svg>